<svg width="104" height="16" viewBox="0 0 104 16" fill="none" xmlns="http://www.w3.org/2000/svg">
<path d="M94.4209 3.49378V1.19392H104V3.49378H100.705V14.8061H97.7164V3.49378H94.4209Z" fill="#04134A"/>
<path d="M85.5996 14.8061V1.19392H90.3566C91.6785 1.19392 92.7181 1.55542 93.4752 2.27841C94.2324 3.0014 94.6109 4.05784 94.6109 5.44772C94.6109 6.83761 94.22 7.91586 93.438 8.68248C92.656 9.4491 91.6196 9.82929 90.3287 9.82306H88.5599V14.8061H85.5996ZM88.5599 7.79432H89.9563C90.5707 7.79432 91.0021 7.60111 91.2503 7.21468C91.5048 6.82826 91.6351 6.27667 91.6413 5.55991C91.6413 4.81822 91.5141 4.26351 91.2596 3.89579C91.0052 3.52183 90.5707 3.33485 89.9563 3.33485H88.5599V7.79432ZM91.9392 14.8061L89.435 8.66378L92.2929 8.26177L95.1788 14.8061H91.9392Z" fill="#04134A"/>
<path d="M73.5454 8.83206V7.13989C73.5454 5.05194 74.0295 3.50312 74.9976 2.49343C75.972 1.47751 77.2412 0.969543 78.8051 0.969543C80.3691 0.969543 81.6382 1.47751 82.6126 2.49343C83.587 3.50312 84.0741 5.05194 84.0741 7.13989V8.83206C84.0741 10.92 83.5839 12.4751 82.6033 13.4972C81.6289 14.5194 80.3629 15.0304 78.8051 15.0304C77.2474 15.0304 75.9813 14.5194 75.007 13.4972C74.0326 12.4751 73.5454 10.92 73.5454 8.83206ZM76.6175 9.48649C76.6175 10.6832 76.8098 11.5526 77.1946 12.0949C77.5856 12.6309 78.1224 12.8989 78.8051 12.8989C79.4878 12.8989 80.0246 12.6309 80.4156 12.0949C80.8128 11.5526 81.0114 10.6832 81.0114 9.48649V6.52285C81.0114 5.33865 80.8128 4.47542 80.4156 3.93318C80.0246 3.39094 79.4878 3.11981 78.8051 3.11981C78.1224 3.11981 77.5856 3.39094 77.1946 3.93318C76.8098 4.47542 76.6175 5.33865 76.6175 6.52285V9.48649Z" fill="#04134A"/>
<path d="M63.5835 14.8061V1.19392H68.4988C69.8641 1.19392 70.9067 1.58347 71.6267 2.36255C72.3466 3.14163 72.7065 4.2604 72.7065 5.71884C72.7065 7.18352 72.3435 8.30852 71.6174 9.09383C70.8974 9.87292 69.8455 10.2625 68.4615 10.2625H66.5438V14.8061H63.5835ZM66.5438 8.17763H68.024C68.6694 8.17763 69.1194 7.97819 69.3738 7.5793C69.6283 7.1804 69.7555 6.57584 69.7555 5.76559C69.7555 4.97404 69.6283 4.3757 69.3738 3.97058C69.1194 3.56546 68.6694 3.36289 68.024 3.36289H66.5438V8.17763Z" fill="#04134A"/>
<path d="M52.2485 14.8061L56.447 6.85942H56.959L59.7983 1.19392H62.4701L58.5416 8.81336H58.0389L54.9948 14.8061H52.2485ZM52.3975 1.19392H55.665L58.523 6.85007H58.6067L62.7586 14.8061H59.4632L56.4377 8.78532H56.3539L52.3975 1.19392Z" fill="#04134A"/>
<path d="M43.9692 14.8061V1.19392H51.9845V3.49378H46.8551V6.75658H51.2584V8.9349H46.8551V12.5436H52.0962V14.8061H43.9692Z" fill="#04134A"/>
<path d="M31.9155 8.83206V7.13989C31.9155 5.05194 32.3996 3.50312 33.3678 2.49343C34.3421 1.47751 35.6113 0.969543 37.1752 0.969543C38.7392 0.969543 40.0083 1.47751 40.9827 2.49343C41.9571 3.50312 42.4443 5.05194 42.4443 7.13989V8.83206C42.4443 10.92 41.954 12.4751 40.9734 13.4972C39.999 14.5194 38.733 15.0304 37.1752 15.0304C35.6175 15.0304 34.3514 14.5194 33.3771 13.4972C32.4027 12.4751 31.9155 10.92 31.9155 8.83206ZM34.9876 9.48649C34.9876 10.6832 35.18 11.5526 35.5647 12.0949C35.9557 12.6309 36.4926 12.8989 37.1752 12.8989C37.8579 12.8989 38.3947 12.6309 38.7857 12.0949C39.1829 11.5526 39.3815 10.6832 39.3815 9.48649V6.52285C39.3815 5.33865 39.1829 4.47542 38.7857 3.93318C38.3947 3.39094 37.8579 3.11981 37.1752 3.11981C36.4926 3.11981 35.9557 3.39094 35.5647 3.93318C35.18 4.47542 34.9876 5.33865 34.9876 6.52285V9.48649Z" fill="#04134A"/>
<path d="M21.9702 3.49378V1.19392H31.5494V3.49378H28.2539V14.8061H25.2657V3.49378H21.9702Z" fill="#04134A"/>
<path d="M11.8003 10.1222V1.19392H14.7606V10.4588C14.7606 11.3438 14.9127 11.9702 15.2168 12.3379C15.5271 12.6994 15.9584 12.8802 16.5108 12.8802C17.0693 12.8802 17.4975 12.6932 17.7954 12.3192C18.0995 11.939 18.2516 11.3189 18.2516 10.4588V1.19392H21.063V10.1222C21.063 11.8237 20.6378 13.0672 19.7876 13.8525C18.9374 14.6378 17.8265 15.0305 16.4549 15.0305C15.0647 15.0305 13.9414 14.6409 13.085 13.8618C12.2285 13.0765 11.8003 11.83 11.8003 10.1222Z" fill="#04134A"/>
<path d="M0 14.8061L4.01228 1.16588H7.29843L11.3014 14.8061H8.25728L5.79965 5.84973C5.73758 5.61912 5.67863 5.348 5.62277 5.03637C5.57312 4.72473 5.53278 4.48478 5.50175 4.31649H5.4459C5.41487 4.48478 5.36832 4.72473 5.30626 5.03637C5.2504 5.348 5.19455 5.61912 5.13869 5.84973L2.71829 14.8061H0ZM2.36454 11.8985L2.81139 9.8698H8.31314L8.76929 11.8985H2.36454Z" fill="#04134A"/>
</svg>
